<?xml version="1.0" encoding="utf-8"?>
<!-- Generator: Adobe Illustrator 24.0.0, SVG Export Plug-In . SVG Version: 6.00 Build 0)  -->
<svg version="1.1" id="Capa_1" xmlns="http://www.w3.org/2000/svg" xmlns:xlink="http://www.w3.org/1999/xlink" x="0px" y="0px"
	 viewBox="0 0 48 48" style="enable-background:new 0 0 48 48;" xml:space="preserve">
	<g>
		<path d="M45,40H3c-1.7,0-3-1.3-3-3V11c0-1.7,1.3-3,3-3h3v2H3c-0.6,0-1,0.4-1,1v26c0,0.6,0.4,1,1,1h42c0.6,0,1-0.4,1-1V11
			c0-0.6-0.4-1-1-1h-3V8h3c1.7,0,3,1.3,3,3v26C48,38.7,46.7,40,45,40z"/>
		<path d="M15,39h2v4h-2V39z"/>
		<path d="M13,47h-2v-2c0-1.7,1.3-3,3-3h10v2H14c-0.6,0-1,0.4-1,1V47z M31,39h2v4h-2V39z"/>
		<path d="M37,47h-2v-2c0-0.6-0.4-1-1-1h-5v-2h5c1.7,0,3,1.3,3,3V47z"/>
		<path d="M9,46h30v2H9V46z M40,36H8c-1.7,0-3-1.3-3-3V9c0-1.7,1.3-3,3-3h10v2H8C7.4,8,7,8.4,7,9v24c0,0.6,0.4,1,1,1h32
			c0.6,0,1-0.4,1-1V9c0-0.6-0.4-1-1-1H30V6h10c1.7,0,3,1.3,3,3v24C43,34.7,41.7,36,40,36z"/>
		<path d="M1,30h5v2H1V30z M42,30h5v2h-5V30z M28.8,26.6l-1.6-1.2l4.6-6.5L24,5.9l-7.8,13l4.6,6.5l-1.6,1.2l-5-7
			c-0.2-0.3-0.2-0.8,0-1.1l9-15c0.3-0.5,1-0.6,1.4-0.3c0.1,0.1,0.2,0.2,0.3,0.3l9,15c0.2,0.3,0.2,0.8,0,1.1L28.8,26.6z"/>
		<path d="M31,31H17c-0.6,0-1-0.4-1-1v-4c0-0.6,0.4-1,1-1h14c0.6,0,1,0.4,1,1v4C32,30.6,31.6,31,31,31z M18,29h12v-2H18V29z"/>
		<path d="M18,30h2v5h-2V30z M28,30h2v5h-2V30z M24,23c-1.1,0-2-0.9-2-2s0.9-2,2-2s2,0.9,2,2S25.1,23,24,23z"/>
		<path d="M23,4h2v16h-2V4z"/>
		<path d="M38,14h-2c0-6.6-5.4-12-12-12S12,7.4,12,14h-2c0-7.7,6.3-14,14-14S38,6.3,38,14z"/>
	</g>
</svg>
