<?xml version="1.0" encoding="utf-8"?>
<!-- Generator: Adobe Illustrator 24.0.0, SVG Export Plug-In . SVG Version: 6.00 Build 0)  -->
<svg version="1.1" id="Capa_1" xmlns="http://www.w3.org/2000/svg" xmlns:xlink="http://www.w3.org/1999/xlink" x="0px" y="0px"
	 viewBox="0 0 48 48" style="enable-background:new 0 0 48 48;" xml:space="preserve">
	<g>
		<path d="M23,40H3c-1.7,0-3-1.3-3-3V3c0-1.7,1.3-3,3-3h42c1.7,0,3,1.3,3,3v12h-2V3c0-0.6-0.4-1-1-1H3C2.4,2,2,2.4,2,3v34
			c0,0.6,0.4,1,1,1h20V40z"/>
		<path d="M15,39h2v4h-2V39z"/>
		<path d="M13,47h-2v-2c0-1.7,1.3-3,3-3h9v2h-9c-0.6,0-1,0.4-1,1V47z"/>
		<path d="M9,46h16v2H9V46z M44,9h-2V6h-3V4h4c0.6,0,1,0.4,1,1V9z M6,9H4V5c0-0.6,0.4-1,1-1h4v2H6V9z"/>
		<path d="M45,48H25c-1.7,0-3-1.3-3-3V15c0-1.7,1.3-3,3-3h20c1.7,0,3,1.3,3,3v30C48,46.7,46.7,48,45,48z M25,14c-0.6,0-1,0.4-1,1v30
			c0,0.6,0.4,1,1,1h20c0.6,0,1-0.4,1-1V15c0-0.6-0.4-1-1-1H25z"/>
		<path d="M23,18h24v2H23V18z M23,40h24v2H23V40z M32,15h6v2h-6V15z M32,43h6v2h-6V43z M1,32h22v2H1V32z M9,30H5c-0.6,0-1-0.4-1-1v-4
			h2v3h3V30z"/>
	</g>
</svg>
